/* XPM */
static char *_49383cb14114ea8ae7caac7df4bccd43Iz8Rb5XT1xb7vHH[] = {
/* columns rows colors chars-per-pixel */
"32 32 117 2 ",
"   c #176533",
".  c #040000",
"X  c #361C03",
"o  c #3D1F04",
"O  c #582E05",
"+  c #113B20",
"@  c #176433",
"#  c #165F30",
"$  c #176332",
"%  c #134625",
"&  c #166131",
"*  c #166031",
"=  c #0F2B19",
"-  c #0F2918",
";  c #15582D",
":  c #144F29",
">  c #382608",
",  c #104020",
"<  c #104121",
"1  c #11381F",
"2  c #15572D",
"3  c #0F2A19",
"4  c #0E2416",
"5  c #114422",
"6  c #124123",
"7  c #102F1B",
"8  c #123D21",
"9  c #0F381C",
"0  c #165E30",
"q  c #15562C",
"w  c #15532B",
"e  c #11371E",
"r  c #15542B",
"t  c #372006",
"y  c #144E28",
"u  c #123E21",
"i  c #144D28",
"p  c #123E22",
"a  c #050704",
"s  c #14582C",
"d  c #10301B",
"f  c #0D1C12",
"g  c #0F2617",
"h  c #144C28",
"j  c #0F2818",
"k  c #060905",
"l  c #0E2115",
"z  c #134525",
"x  c #0C2B16",
"c  c #123F22",
"v  c #15592E",
"b  c #113C21",
"n  c #0D1911",
"m  c #0F2717",
"M  c #050804",
"N  c #050402",
"B  c #050502",
"V  c #10331C",
"C  c #11391F",
"Z  c #165D30",
"A  c #08130A",
"S  c #0A170E",
"D  c #165B2F",
"F  c #070F08",
"G  c #0F321C",
"H  c #134B27",
"J  c #14502A",
"K  c #124324",
"L  c #10341D",
"P  c #123C20",
"I  c #0C1911",
"U  c #10381E",
"Y  c #123B20",
"T  c #176232",
"R  c #14512A",
"E  c #0E2316",
"W  c #0D1F14",
"Q  c #134A27",
"!  c #0D1E13",
"~  c #0A1D0F",
"^  c #3A2D0C",
"/  c #134424",
"(  c #0A190E",
")  c #0C1610",
"_  c #102F1A",
"`  c #070E07",
"'  c #165D2F",
"]  c #050201",
"[  c #0D1810",
"{  c #08150B",
"}  c #10311C",
"|  c #165B2E",
" . c #0F2D1A",
".. c #102E1A",
"X. c #060804",
"o. c #134926",
"O. c #113C20",
"+. c #0F2A18",
"@. c #0E2215",
"#. c #0E2516",
"$. c #050603",
"%. c #0C2915",
"&. c #165C2F",
"*. c #0C150F",
"=. c #0F3A1E",
"-. c #124223",
";. c #0D2F18",
":. c #392C0C",
">. c #060A05",
",. c #0E2517",
"<. c #144A27",
"1. c #0D1B12",
"2. c #0C130E",
"3. c #134927",
"4. c #14522B",
"5. c #0F2517",
"6. c #0C2614",
/* pixels */
"                          - q                                   ",
"                  : :   J +.$                         w C       ",
"                  : E Q 7 %                           K 1       ",
"                    4.n 5.#       # $     ; ;         v 2       ",
"                      1.=         #.n q   + c                   ",
"                      3 W         $ f +   V o.                  ",
"                      0 l 2         y g   j ;                   ",
"                        z -         @ 7 6 @.@                   ",
"          Z w           @ -.          &.r g                     ",
"          i d         T * # $           r =                     ",
"      y $ i d &       % - 4 <.          h }                     ",
"      j u h _ 2.        3.*.Y           R 6                     ",
"      | = e 3 m           4 r                                   ",
"        2 c m V           f 0           #  .                    ",
"          6 ,.8         @ ) @           w 3     % %             ",
"          8 p     & &   0 !             e P &   b p             ",
"          1 /     1 O.                  [ e +   ..H             ",
"          u :   @ 4 q                 % = + + ' l #             ",
"                Z I < %.:.> a B . B t t { ( 6.U L               ",
"            v ;.` . . . X X . . . . X X . . . . F 9 *           ",
"          5 $.. . . . . X X . . . . X X . . . . . . M 5         ",
"        , . . . . . . . X O o o o o O X . . . . . . . . ,       ",
"        >.. . . . . . . X O o o o o O X . . . . . . . . k       ",
"        X.. . . . . . . X X . . . . X X . . . . . . . . k       ",
"      D S . . . . . . . X O o o o o O X . . . . . . . . ,       ",
"      + C =.] . . . . . X O o o o o O X . . . . . . M 5         ",
"    & - ; b G 9 A . . . X X . . . . X X . . . . A 9 *           ",
"    * 8   7 z     s < x ^ > a N . N t > ~ x < s                 ",
"                                                                ",
"                                                                ",
"                                                                ",
"                                                                "
};
