/* XPM */
static char *_00074111c204492a470486c91dbbcb9YCOZ9WDjIPylCixP[] = {
/* columns rows colors chars-per-pixel */
"32 32 98 2 ",
"   c #176533",
".  c #113B20",
"X  c #165F30",
"o  c #176433",
"O  c #176332",
"+  c #166131",
"@  c #0E2416",
"#  c #0F2918",
"$  c #134625",
"%  c #15582D",
"&  c #123D21",
"*  c #15562C",
"=  c #144D28",
"-  c #0F2B19",
";  c #0F2818",
":  c #0F2717",
">  c #102F1B",
",  c #144F29",
"<  c #10341D",
"1  c #144E28",
"2  c #144C28",
"3  c #0E2115",
"4  c #14512A",
"5  c #15542B",
"6  c #123E21",
"7  c #15552C",
"8  c #165D30",
"9  c #11391F",
"0  c #0D1C12",
"q  c #14502A",
"w  c #11381F",
"e  c #0F2A19",
"r  c #124123",
"t  c #11371E",
"y  c #165E30",
"u  c #15572D",
"i  c #10301B",
"p  c #102E1A",
"a  c #15532B",
"s  c #15592E",
"d  c #124223",
"f  c #134726",
"g  c #0F2617",
"h  c #0F2D1A",
"j  c #113C20",
"k  c #113C21",
"l  c #123F22",
"z  c #0D1E13",
"x  c #0E2215",
"c  c #0C150F",
"v  c #123E22",
"b  c #166031",
"n  c #10321C",
"m  c #0D1911",
"M  c #10331C",
"N  c #134A27",
"B  c #134525",
"V  c #134927",
"C  c #10311C",
"Z  c #0C130E",
"A  c #0C1610",
"S  c #134926",
"D  c #144A27",
"F  c #14522B",
"G  c #123C20",
"H  c #124324",
"J  c #165C2F",
"K  c #134424",
"L  c #0D1D13",
"P  c #176231",
"I  c #0E2516",
"U  c #0C1710",
"Y  c #0D1B12",
"T  c #102F1A",
"R  c #124023",
"E  c #123B20",
"W  c #176432",
"Q  c #0F2A18",
"!  c #176232",
"~  c #0D1810",
"^  c #134B27",
"/  c #165B2F",
"(  c #134826",
")  c #0E2517",
"_  c #113A20",
"`  c #0E2315",
"'  c #0E2316",
"]  c #165A2E",
"[  c #134524",
"{  c #144E29",
"}  c #0D1F14",
"|  c #102C19",
" . c #0E2014",
".. c #11351E",
"X. c #0F2517",
"o. c #165B2E",
"O. c #165D2F",
"+. c #0F2C1A",
/* pixels */
"                          $ %                                   ",
"                          # *                                   ",
"                  , ,   q Q O                         a 9       ",
"                  , ' N > $                           H w       ",
"                    F m X.X       X O     % %         s u       ",
"                      Y -         I m *   . l                   ",
"                      e }         O 0 .   M S                   ",
"                      y 3 u         1 g   ; %                   ",
"                        B #         o > r x o                   ",
"          8 a           o d           J 5 g                     ",
"          = i         ! b X O           5 -                     ",
"      1 O = i +       $ # @ D           2 C                     ",
"      ; 6 2 T Z         V c E           4 r                     ",
"      o.- t e :           @ 5                                   ",
"        u l : M           0 y           X h                     ",
"          r ) &         o A o           a e     $ $             ",
"          & v     + +   y z             t G +   k v             ",
"          w K     w j                   ~ t .   p ^             ",
"          6 ,   o @ *                 $ - . . O.3 X             ",
"                8 L   + +             ; ( _ . R <               ",
"            8 7 N p W i &                 < d x q               ",
"            f n & . 7 @       1 O         +.[ U o               ",
"            j . C V 9 6       : 2         : 4 O                 ",
"          ] 3 | n q ; s       { # P       @ %   X h             ",
"        s 0  .=   = >           ..<             4 #             ",
"      / @ f c X   7 1           X ` 2           = p             ",
"      . 9 * z                                   X *             ",
"    + # % k <                                                   ",
"    b &   > B                                                   ",
"                                                                ",
"                                                                ",
"                                                                "
};
