/* XPM */
static char *_dc05e0569684bcebb3e8e68e955e5f90dLzZABBthFShJan[] = {
/* columns rows colors chars-per-pixel */
"32 32 256 2 ",
"   c #11391F",
".  c #123C20",
"X  c #144D28",
"o  c #15532B",
"O  c #124123",
"+  c #10321C",
"@  c #14502A",
"#  c #0D1D13",
"$  c #0E2416",
"%  c #113C21",
"&  c #0F2918",
"*  c #4F5A53",
"=  c #030101",
"-  c #134A27",
";  c #205C36",
":  c #134424",
">  c #0F2A19",
",  c #176533",
"<  c #0E2014",
"1  c #0C150F",
"2  c #0C1710",
"3  c #6DB772",
"4  c #15582D",
"5  c #166131",
"6  c #165F30",
"7  c #113B20",
"8  c #186433",
"9  c #176433",
"0  c #134625",
"q  c #140C04",
"w  c #15562C",
"e  c #144F29",
"r  c #381E08",
"t  c #123D21",
"y  c #10301B",
"u  c #165D30",
"i  c #134726",
"p  c #176332",
"a  c #351A06",
"s  c #6DB872",
"d  c #102F1B",
"f  c #15592E",
"g  c #15552C",
"h  c #371D08",
"j  c #102E1A",
"k  c #021D02",
"l  c #274126",
"z  c #0F2717",
"x  c #2A5539",
"c  c #020B02",
"v  c #158612",
"b  c #25633B",
"n  c #137611",
"m  c #10341D",
"M  c #002E00",
"N  c #158212",
"B  c #3D1F09",
"V  c #130400",
"C  c #005801",
"Z  c #311905",
"A  c #0C4E09",
"S  c #147712",
"D  c #15572D",
"F  c #144E28",
"G  c #134927",
"H  c #123E22",
"J  c #123F22",
"K  c #165B2F",
"L  c #165B2E",
"P  c #26392F",
"I  c #093F06",
"U  c #436043",
"Y  c #195D32",
"T  c #0E4A1A",
"R  c #213A20",
"E  c #6BB271",
"W  c #3F6341",
"Q  c #455144",
"!  c #225D38",
"~  c #222822",
"^  c #2C623F",
"/  c #165A2E",
"(  c #454F46",
")  c #4E6054",
"_  c #42744D",
"`  c #5D8F66",
"'  c #083107",
"]  c #67AE6E",
"[  c #1B1410",
"{  c #396148",
"}  c #355E44",
"|  c #515253",
" . c #213B1F",
".. c #110908",
"X. c #283427",
"o. c #211810",
"O. c #0D590B",
"+. c #4F5C52",
"@. c #74C778",
"#. c #515B56",
"$. c #014800",
"%. c #2B4F2B",
"&. c #1E3D29",
"*. c #4B4B4D",
"=. c #091A0A",
"-. c #38453A",
";. c #74C879",
":. c #364A3B",
">. c #354D3F",
",. c #147912",
"<. c #545C57",
"1. c #2D382F",
"2. c #42514E",
"3. c #6DB974",
"4. c #306031",
"5. c #24603A",
"6. c #80D883",
"7. c #3F5349",
"8. c #054502",
"9. c #3D473D",
"0. c #093308",
"q. c #0C370B",
"w. c #0C130E",
"e. c #545856",
"r. c #134826",
"t. c #263427",
"y. c #0E2316",
"u. c #2C603F",
"i. c #165E30",
"p. c #3A1E08",
"a. c #036002",
"s. c #0C6A0B",
"d. c #434343",
"f. c #6FBC74",
"g. c #77CB7C",
"h. c #496F54",
"j. c #568860",
"k. c #7BCF7F",
"l. c #4D524F",
"z. c #74C777",
"x. c #083C07",
"c. c #2F3B34",
"v. c #224C31",
"b. c #7DD57F",
"n. c #041403",
"m. c #176432",
"M. c #262625",
"N. c #4B7457",
"B. c #10740E",
"V. c #210C01",
"C. c #21562D",
"Z. c #0D5309",
"A. c #373C39",
"S. c #116610",
"D. c #052404",
"F. c #0E230E",
"G. c #595A59",
"H. c #0D720B",
"J. c #132F1D",
"K. c #152A1D",
"L. c #236139",
"P. c #27633D",
"I. c #76C97A",
"U. c #0A4406",
"Y. c #76CA7A",
"T. c #134E28",
"R. c #1E5E35",
"E. c #1E371D",
"W. c #234022",
"Q. c #1E381D",
"!. c #264725",
"~. c #375642",
"^. c #14640F",
"/. c #106F0F",
"(. c #5D5D5C",
"). c #5C5D5E",
"_. c #5D5E5C",
"`. c #5F5F5F",
"'. c #6DBA73",
"]. c #3E2109",
"[. c #0A070A",
"{. c #2F2F2D",
"}. c #0F0D0A",
"|. c #3D423C",
" X c #43694F",
".X c #6CB771",
"XX c #2B4B2A",
"oX c #3A4E38",
"OX c #2F4F2D",
"+X c #0C331A",
"@X c #36483C",
"#X c #335841",
"$X c #133F23",
"%X c #2B352A",
"&X c #137D11",
"*X c #147E12",
"=X c #79D17D",
"-X c #7BD37E",
";X c #152614",
":X c #4C614D",
">X c #2F4E3A",
",X c #61605F",
"<X c #3E604A",
"1X c #455049",
"2X c #275938",
"3X c #272827",
"4X c #355A35",
"5X c #65B06A",
"6X c #39633D",
"7X c #3C5C48",
"8X c #3D603E",
"9X c #045B01",
"0X c #1C1D1C",
"qX c #261303",
"wX c #102C19",
"eX c #205B35",
"rX c #2E523B",
"tX c #364740",
"yX c #3B5249",
"uX c #0A6309",
"iX c #004000",
"pX c #35413E",
"aX c #3A5A46",
"sX c #385D46",
"dX c #5B5B5B",
"fX c #111007",
"gX c #093408",
"hX c #6DB972",
"jX c #235936",
"kX c #589660",
"lX c #3B3C3B",
"zX c #0A5A08",
"xX c #0B100A",
"cX c #315030",
"vX c #6FBB74",
"bX c #2C5039",
"nX c #112110",
"mX c #0F2D1A",
"MX c #0D1911",
"NX c #555A56",
"BX c #2D3B2D",
"VX c #11371E",
"CX c #102F1A",
"ZX c #165D2F",
"AX c #253125",
"SX c #166031",
"DX c #75C879",
"FX c #376046",
"GX c #0E2115",
"HX c #2E4D38",
"JX c #6CB372",
"KX c #0E610B",
"LX c #185F32",
"PX c #124324",
"IX c #134926",
"UX c #73BE79",
/* pixels */
", , , , , , , , , , , , , 0 4 , , , , , , , , , , , , , , , , , ",
", , , , , , , , , , , , , & w , , , , , , , , , , , , , , , , , ",
", , , , , , , , , e e , @ > p , , , , , , , , , , , , o   , , , ",
", , , , , , , , , e y.- d 0 , , , , , , , , , , , , , PX  , , , ",
", , , , , , , , , , o MXJ.Y * C.T I x.=.c.4 4 , , , , f D , , , ",
", , , , , , , , , , , P e.( M KXv N v 9X9.bXJ , , , , , , , , , ",
", , , , , , , , , 8 * ;XM C s./.n S S H.l FXIX, , , , , , , , , ",
", , , , , , , , , >.X.a.iX .l n.zX*Xn &XO.v.4 , , , , , , , , , ",
", , , , , , , , , tX%Xk +.&.; <.' B.,.N C ) 9 , , , , , , , , , ",
", , , , , u o , , 8 sXA.jXO L.7X-.uXS.^.$.NX8 , , , , , , , , , ",
", , , , , X y , , , r.; LX6 = {.[ q q q = dX8 , , , , , , , , , ",
", , , F p X y 5 , , 4 i & $ K.o.Z B p.B V.d.P., , , , , , , , , ",
", , , & H X CXw., , , , G 1 #.V ].h h r Z = u., , , , , , , , , ",
", , , L > VX> z , , , , , $ rX..a r h r qX= x , , , , , , , , , ",
", , , , D J z + , , , , , # R.,XV a r a }.M.b , , , , , , , , , ",
", , , , , O $ t , , , , 9 2 HX_.xXfXq = (.<X, , 0 0 , , , , , , ",
", , , , , t H , , 5 5 , i.eX|.4Xj.` yXX.x . 5 , % H , , , , , , ",
", , , , ,   : , ,   % , , l.8X6.'.3.;.N.1.! 7 , j - , , , , , , ",
", , , , , H e , 9 $ w , >XQ kXhX3 3 3 z.W aX7 ZXGX6 , , , , , , ",
", , , , , , , , u # , 5 pXoX5Xs 3 3 3 @.h.lX$XO m , , , , , , , ",
", , , , , , u g - j m.y 7.Q.] s 3 3 3 s UXU T.GX@ , , , , , , , ",
", , , , , , i + t 7 g $ `.4.f.3 3 3 3 .Xk.W ^ 2 9 , , , , , , , ",
", , , , , , % 7 + G   H )._ b.JX3 3 3 E -X6X:.p , , , , , , , , ",
", , , , , / GXwX+ @ & f { !. Xg.I.DXY.=XvXcXb , 6 mX, , , , , , ",
", , , , f # < X , X d @X1X*.1 E.XXOXR %.W.G.5., @ & , , , , , , ",
", , , K $ i 1 6 , g F ~.0X| [.= 2.:X= c 3X#X, , X j , , , , , , ",
", , , 7   w # , , , , , c 8.Z.k ~ U.A A nX+X, , 6 w , , , , , , ",
", , 5 & 4 % m , , , , , 2XD.x.F.BXq.gX0.AX} , , , , , , , , , , ",
", , SXt , d 0 , , , , , , , , , , , , , , , , , , , , , , , , , ",
", , , , , , , , , , , , , , , , , , , , , , , , , , , , , , , , ",
", , , , , , , , , , , , , , , , , , , , , , , , , , , , , , , , ",
", , , , , , , , , , , , , , , , , , , , , , , , , , , , , , , , "
};
