/* XPM */
static char *cb4f210270bb4dc3adbd1ce969e31b0bQTxpbJDshhxjIWWB[] = {
/* columns rows colors chars-per-pixel */
"32 32 256 2 ",
"   c #14512A",
".  c #10321C",
"X  c #158212",
"o  c #166131",
"O  c #140C04",
"+  c #124123",
"@  c #25633B",
"#  c #165B2E",
"$  c #123C20",
"%  c #102E1A",
"&  c #0E2416",
"*  c #113B20",
"=  c #381E08",
"-  c #2F4E3A",
";  c #144D28",
":  c #11381F",
">  c #0C4E09",
",  c #0F2A19",
"<  c #134524",
"1  c #2A5539",
"2  c #021D02",
"3  c #123F22",
"4  c #113C21",
"5  c #311905",
"6  c #134A27",
"7  c #27633D",
"8  c #351A06",
"9  c #196534",
"0  c #0D1D13",
"q  c #010101",
"w  c #0D160E",
"e  c #176533",
"r  c #020B02",
"t  c #0F2818",
"y  c #134926",
"u  c #0E2014",
"i  c #002E00",
"p  c #3D1F09",
"a  c #0F2D1A",
"s  c #130400",
"d  c #0D1911",
"f  c #6DB772",
"g  c #165F30",
"h  c #15582D",
"j  c #176332",
"k  c #144F29",
"l  c #134625",
"z  c #371D08",
"x  c #15532B",
"c  c #225A36",
"v  c #165D30",
"b  c #11371E",
"n  c #0F2717",
"m  c #10341D",
"M  c #6DB872",
"N  c #15562C",
"B  c #10301B",
"V  c #134726",
"C  c #274126",
"Z  c #176433",
"A  c #1E5E35",
"S  c #2C5039",
"D  c #15572D",
"F  c #158612",
"G  c #123D21",
"H  c #15592E",
"J  c #235936",
"K  c #147712",
"L  c #1C6034",
"P  c #205B35",
"I  c #137611",
"U  c #116610",
"Y  c #0C6A0B",
"T  c #6BB271",
"R  c #4D524F",
"E  c #0E2115",
"W  c #74C778",
"Q  c #375E46",
"!  c #093308",
"~  c #0C331A",
"^  c #14522B",
"/  c #1B1410",
"(  c #073C05",
")  c #0D720B",
"_  c #4E6054",
"`  c #110908",
"'  c #3F6341",
"]  c #224C31",
"[  c #1E371D",
"{  c #73BE79",
"}  c #213A20",
"|  c #15552C",
" . c #355A42",
".. c #315030",
"X. c #2B4F2B",
"o. c #3A1E08",
"O. c #106F0F",
"+. c #76CA7A",
"@. c #124324",
"#. c #036002",
"$. c #0F0D0A",
"%. c #65B06A",
"&. c #070000",
"*. c #565757",
"=. c #0A4406",
"-. c #2D523A",
";. c #5D5E5C",
":. c #6DB972",
">. c #36483C",
",. c #79D17D",
"<. c #5E605E",
"1. c #306031",
"2. c #6FBB74",
"3. c #455049",
"4. c #75C879",
"5. c #255839",
"6. c #152614",
"7. c #0C1710",
"8. c #436043",
"9. c #272827",
"0. c #373C39",
"q. c #054502",
"w. c #5B5B5B",
"e. c #093408",
"r. c #0A5A08",
"t. c #355E44",
"y. c #2B4B2A",
"u. c #2D382F",
"i. c #74C879",
"p. c #2C603F",
"a. c #2C623F",
"s. c #434343",
"d. c #568860",
"f. c #61605F",
"g. c #10740E",
"h. c #073405",
"j. c #48594F",
"k. c #083107",
"l. c #7BCF7F",
"z. c #093C08",
"x. c #496F54",
"c. c #147E12",
"v. c #6FBC74",
"b. c #376046",
"n. c #3E604A",
"m. c #5D8F66",
"M. c #295338",
"N. c #589660",
"B. c #093F06",
"V. c #374E43",
"C. c #111007",
"Z. c #262625",
"A. c #210C01",
"S. c #041403",
"D. c #67AE6E",
"F. c #211810",
"G. c #091A0A",
"H. c #335841",
"J. c #1A6234",
"K. c #5F5F5F",
"L. c #052404",
"P. c #375642",
"I. c #0E230E",
"U. c #2F4F2D",
"Y. c #4C614D",
"T. c #3E2109",
"R. c #355A35",
"E. c #6CB771",
"W. c #6DBA73",
"Q. c #605D60",
"!. c #76C97A",
"~. c #3C5C48",
"^. c #014800",
"/. c #205A36",
"(. c #7DD57F",
"). c #4F5A53",
"_. c #234022",
"`. c #253125",
"'. c #264725",
"]. c #14640F",
"[. c #261303",
"{. c #134E28",
"}. c #2F2F2D",
"|. c #283427",
" X c #455144",
".X c #42744D",
"XX c #0A070A",
"oX c #515253",
"OX c #15211A",
"+X c #3D4642",
"@X c #38453A",
"#X c #3D423C",
"$X c #3D473D",
"%X c #5D5D5C",
"&X c #5D5E5E",
"*X c #364A3B",
"=X c #4B7457",
"-X c #344F3C",
";X c #137D11",
":X c #147912",
">X c #2B352A",
",X c #7BD37E",
"<X c #4C5F53",
"1X c #5A605B",
"2X c #005801",
"3X c #1D5F35",
"4X c #1E5C35",
"5X c #1F5C36",
"6X c #1E381D",
"7X c #42514E",
"8X c #74C777",
"9X c #6DB974",
"0X c #3A4E38",
"qX c #225D38",
"wX c #77CB7C",
"eX c #2E523B",
"rX c #43694F",
"tX c #39633D",
"yX c #3D623F",
"uX c #1C1D1C",
"iX c #0D5309",
"pX c #6CB372",
"aX c #3C4142",
"sX c #35413E",
"dX c #37443A",
"fX c #3B5249",
"gX c #3F5349",
"hX c #515B56",
"jX c #165D2F",
"kX c #0A6309",
"lX c #0E610B",
"zX c #545C57",
"xX c #4B4B4D",
"cX c #004000",
"vX c #222822",
"bX c #595A59",
"nX c #213B1F",
"mX c #0C370B",
"MX c #102C19",
"NX c #80D883",
"BX c #3B3C3B",
"VX c #0D590B",
"CX c #045B01",
"ZX c #24603A",
"AX c #2A4828",
"SX c #112110",
"DX c #0B100A",
"FX c #3C5D3C",
"GX c #0C130E",
"HX c #2D3B2D",
"JX c #263427",
"KX c #3A5A46",
"LX c #144E28",
"PX c #2F3B34",
"IX c #0E2316",
"UX c #454F46",
/* pixels */
"e e e e e e e e e e e e e t N e e e e e e e e e e e e e e e e e ",
"e e e e e e e e e k k e   , j e e e e e e e e e e e e x : e e e ",
"e e e e e e e e e k IX6 B l e e e e e e e e e e e e e @.: e e e ",
"e e e e e e e e e e ^ d & g e e e g j e e h h e e e e H D e e e ",
"e e e e e e e e e e 3XPXG.( B.h.AX*.5.J e * 3 e e e e e e e e e ",
"e e e e e e e e e e S $XCXF X F lXi UX&XV.M.y e e e e e e e e e ",
"e e e e e e e e e e b.C ) K K I O.Y 2Xi 6.).4Xe e e e e e e e e ",
"e e e e e e e e e e ] VX;XI c.r.S.C nXcX#.|.+Xe e e e e e e e e ",
"e e e e e v x e e L _ 2XX :Xg.k.zXS Q 1X2 >XaXe e e e e e e e e ",
"e e e e e ; B e e P <.^.].U kX@X~. .e - 0.j./.e e e e e e e e e ",
"e e e LXj ; B o e 5Xw.&.O O O / }.q e J -.. e e e e e e e e e e ",
"e e e t G ; % GXe 7 s.A.p o.p 5 F.OXe e   + e e e e e e e e e e ",
"e e e # , b , n e p.q 5 = z z T.s hXe e e e e e e e e e e e e e ",
"e e e e D 3 n . e 1 q [.= z = 8 ` eXe e g a e e e e e e e e e e ",
"e e e e e + & G e @ Z.$.8 = 8 s f.A e e x , e e l l e e e e e e ",
"e e e e e G 3 e e o n.%X&.O C.DX;.dXe e b $ o e 4 3 e e e e e e ",
"e e e e e : < e e : 4 1 JXfXm.d.R.#XP e d b * e % 6 e e e e e e ",
"e e e e e G k e Z & qXu.=Xi.9XW.NXFXR c , * * jXE g e e e e e e ",
"e e e e e e e e v 0 KX' 8Xf f f :.N. X- y * * + m e e e e e e e ",
"e e e e e e v | 6 7 BXx.W f f f M %.0XsXA m + E   e e e e e e e ",
"e e e e e e V . G {.8.{ M f f f M D.6XgXL MX< 7.Z e e e e e e e ",
"e e e e e e 4 * . a.yXl.E.f f f f v.1.K.c n   j e e e e e e e e ",
"e e e e e # E MX. *XtX,XT f f f pX(..XQ.c & h e g a e e e e e e ",
"e e e e H 0 u ; e @ ..2.,.+.4.!.wXrX'.<XJ.e e e   t e e e e e e ",
"e e e # & V w g e ZXbX_.X.} U.y.[ w xX3.>.e e e ; % e e e e e e ",
"e e e * : N 0 e e e H.9.r q Y.7Xq XXoXuXP.e e e g N e e e e e e ",
"e e o t h 4 m e e e ~ SX> > =.vX2 iXq.r 9 e e e e e e e e e e e ",
"e e o G e B < e e e t.`.! e.mXHXI.z.L.-X9 e e e e e e e e e e e ",
"e e e e e e e e e e e e e e e e e e e e e e e e e e e e e e e e ",
"e e e e e e e e e e e e e e e e e e e e e e e e e e e e e e e e ",
"e e e e e e e e e e e e e e e e e e e e e e e e e e e e e e e e ",
"e e e e e e e e e e e e e e e e e e e e e e e e e e e e e e e e "
};
