/* XPM */
static char *_4dc2b58262b4702fe5c03ad3dfe3d30G9Foyu1hqgoJUaDq[] = {
/* columns rows colors chars-per-pixel */
"32 32 237 2 ",
"   c #176533",
".  c #6DB772",
"X  c #196334",
"o  c #225A36",
"O  c #186433",
"+  c #371D08",
"@  c #6DB872",
"#  c black",
"$  c #235936",
"%  c #158612",
"&  c #2C5039",
"*  c #147712",
"=  c #1C6034",
"-  c #1E5E35",
";  c #274126",
":  c #205B35",
">  c #137611",
",  c #381E08",
"<  c #2B352A",
"1  c #4E6054",
"2  c #196434",
"3  c #0D160C",
"4  c #2E4E39",
"5  c #25613B",
"6  c #150F04",
"7  c #073405",
"8  c #445048",
"9  c #158112",
"0  c #148211",
"q  c #3D473D",
"w  c #160C03",
"e  c #2C603F",
"r  c #4D524F",
"t  c #093408",
"y  c #75C879",
"u  c #1A6234",
"i  c #2D382F",
"p  c #152614",
"a  c #2C623F",
"s  c #2A4828",
"d  c #545C57",
"f  c #110908",
"g  c #045B01",
"h  c #3E2109",
"j  c #375E46",
"k  c #272827",
"l  c #093308",
"z  c #014800",
"x  c #000D00",
"c  c #054502",
"v  c #0E610B",
"b  c #14640F",
"n  c #605D60",
"m  c #3F5349",
"M  c #3D623F",
"N  c #306031",
"B  c #589660",
"V  c #5B5B5B",
"C  c #434343",
"Z  c #5A595B",
"A  c #39633D",
"S  c #264725",
"D  c #116610",
"F  c #351A05",
"G  c #213A20",
"H  c #6FBC74",
"J  c #454F46",
"K  c #1E5C35",
"L  c #213B1F",
"P  c #5E605E",
"I  c #4C5F53",
"U  c #315030",
"Y  c #134E28",
"T  c #29643E",
"R  c #5A605B",
"E  c #137D11",
"W  c #151716",
"Q  c #39483F",
"!  c #5D5E5E",
"~  c #5D5D5C",
"^  c #38453A",
"/  c #391E08",
"(  c #0D720B",
")  c #515253",
"_  c #0F0D0A",
"`  c #3C5D3C",
"'  c #0A070A",
"]  c #1E371D",
"[  c #455144",
"{  c #301906",
"}  c #3A5A46",
"|  c #081808",
" . c #4B4B4D",
".. c #093F06",
"X. c #568860",
"o. c #321904",
"O. c #3C1F09",
"+. c #5F5F5F",
"@. c #005701",
"#. c #0D590B",
"$. c #0C6A0B",
"%. c #76C97A",
"&. c #565757",
"*. c #391D07",
"=. c #3D423C",
"-. c #74C777",
";. c #80D883",
":. c #335841",
">. c #4C614D",
",. c #436043",
"<. c #43694F",
"1. c #42744D",
"2. c #0E230E",
"3. c #166131",
"4. c #6DB972",
"5. c #376046",
"6. c #42514E",
"7. c #3E604A",
"8. c #4F5A53",
"9. c #050000",
"0. c #36483C",
"q. c #130600",
"w. c #3F6341",
"e. c #040303",
"r. c #61605F",
"t. c #27633D",
"y. c #030803",
"u. c #186533",
"i. c #36493D",
"p. c #0B100A",
"a. c #225D38",
"s. c #79D17D",
"d. c #001C00",
"f. c #0D4E09",
"g. c #120B05",
"h. c #354A3D",
"j. c #004000",
"k. c #25633B",
"l. c #2D3B2D",
"z. c #355E44",
"x. c #3B3C3B",
"c. c #77CB7C",
"v. c #1E381D",
"b. c #6FBB74",
"n. c #10740E",
"m. c #364A3B",
"M. c #222822",
"N. c #6DB974",
"B. c #073C05",
"V. c #0A6309",
"C. c #3D4642",
"Z. c #0A4406",
"A. c #595A59",
"S. c #1B1410",
"D. c #355A35",
"F. c #1C1D1C",
"G. c #1D5F35",
"H. c #2F2F2D",
"J. c #48594F",
"K. c #4B7457",
"L. c #3A4E38",
"P. c #002F00",
"I. c #211810",
"U. c #176132",
"Y. c #106F0F",
"T. c #036002",
"R. c #73BE79",
"E. c #080000",
"W. c #76CA7A",
"Q. c #263427",
"!. c #234022",
"~. c #261303",
"^. c #6BB271",
"/. c #2B4F2B",
"(. c #6CB372",
"). c #496F54",
"_. c #0D5309",
"`. c #455049",
"'. c #374E43",
"]. c #283427",
"[. c #010301",
"{. c #3C5C48",
"}. c #3C4841",
"|. c #112110",
" X c #3E473F",
".X c #120B02",
"XX c #041E03",
"oX c #0A5A08",
"OX c #3A1E08",
"+X c #0C370B",
"@X c #3D1F08",
"#X c #210C01",
"$X c #6CB771",
"%X c #295338",
"&X c #2F4D3A",
"*X c #7BCF7F",
"=X c #083107",
"-X c #7BD37E",
";X c #35413E",
":X c #111007",
">X c #002D00",
",X c #6DBA73",
"<X c #7DD57F",
"1X c #262625",
"2X c #2F4F2D",
"3X c #405748",
"4X c #205A36",
"5X c #74C778",
"6X c #5D8F66",
"7X c #3B393B",
"8X c #27633C",
"9X c #351B06",
"0X c #224C31",
"qX c #341A06",
"wX c #24603A",
"eX c #37443A",
"rX c #2B4B2A",
"tX c #65B06A",
"yX c #147E12",
"uX c #67AE6E",
"iX c #1F5C36",
"pX c #052404",
"aX c #041403",
"sX c #74C879",
"dX c #093C08",
"fX c #0B4E08",
"gX c #005901",
"hX c #24623A",
"jX c #5D5E5C",
"kX c #147912",
"lX c #255839",
"zX c #120100",
"xX c #0C331A",
"cX c #3B5249",
"vX c #355A42",
"bX c #253125",
"nX c #3C4142",
/* pixels */
"                                                                ",
"                                                                ",
"                                                                ",
"                                                                ",
"                    G.}.| B...7 s &.lX$ O                       ",
"                    & q g % 9 % v P.J ! '.%XX                   ",
"                    5.; ( * * > Y.$.gX>Xp 8.K                   ",
"                    0X#.E > yXoXaX; L j.T.].C.                  ",
"                  = 1 @.0 kXn.=Xd & j R d.< nX                  ",
"                  : P z b D V.^ {.vX  4 7XJ.4X                  ",
"                  iXV 9.w 6 .XS.H.e.  $ 3X2                     ",
"                  t.C #X@XOXO.o.I.W U.                          ",
"                  e # { / + + h zXZ X                           ",
"                  i.# ~., + , qXf Q O                           ",
"                  k.1X_ 9X*.F q.r.-                             ",
"                  3.7.~ E.g.:Xp.jXeX                            ",
"                      h.Q.cX6XX.D.=.:                           ",
"                    a.i K.sXN.,X;.` r o                         ",
"                  u.} w.-.. . . 4.B [ &XO                       ",
"                  8Xx.).5X. . . @ tXL.;X-                       ",
"                  Y ,.R.@ . . . @ uXv.m =                       ",
"                  a M *X$X. . . . H N +.o                       ",
"                  m.A -X^.. . . (.<X1.n o                       ",
"                  hXU b.s.W.y %.c.<.S I u                       ",
"                  wXA.!./.G 2XrX] 3  .`.0.X                     ",
"                    :.k x # >.6.[.' ) F.8 X                     ",
"                    xX|.f.fXZ.M.XX_.c y.5                       ",
"                    z.bXl t +Xl.2.dXpX XT                       ",
"                                                                ",
"                                                                ",
"                                                                ",
"                                                                "
};
