/* XPM */
static char *_7cd7d8b188b4ee59c264fa5d1f212c8LG0XjaZltNreg33M[] = {
/* columns rows colors chars-per-pixel */
"32 32 236 2 ",
"   c None",
".  c black",
"X  c #000100",
"o  c #010100",
"O  c #010201",
"+  c #010301",
"@  c #020301",
"#  c #020202",
"$  c gray1",
"%  c #040302",
"&  c #050302",
"*  c #010401",
"=  c #020401",
"-  c #020601",
";  c #020402",
":  c #030403",
">  c #020702",
",  c #060401",
"<  c #040403",
"1  c #050403",
"2  c #050503",
"3  c #060503",
"4  c #060602",
"5  c #070702",
"6  c #060504",
"7  c #040604",
"8  c #040704",
"9  c #060605",
"0  c #080502",
"q  c #080503",
"w  c #0D0702",
"e  c #090705",
"r  c #010801",
"t  c #010A01",
"y  c #070803",
"u  c #020C01",
"i  c #030C03",
"p  c #050805",
"a  c #050905",
"s  c #050A05",
"d  c #060906",
"f  c #070A07",
"g  c #040D04",
"h  c #050E05",
"j  c #070C07",
"k  c #0F0802",
"l  c #090909",
"z  c #080B08",
"x  c #090A09",
"c  c #0A0A08",
"v  c #0A0B0A",
"b  c #090C08",
"n  c #090D08",
"m  c #080E08",
"M  c #0A0C0A",
"N  c #0B0C0A",
"B  c #0C0F0B",
"V  c #0E0E0E",
"C  c #1D0F04",
"Z  c #100E0D",
"A  c #031102",
"S  c #031103",
"D  c #031202",
"F  c #041103",
"G  c #061005",
"H  c #051604",
"J  c #041802",
"K  c #041D03",
"L  c #051F03",
"P  c #051904",
"I  c #071F06",
"U  c #081807",
"Y  c #081008",
"T  c #081108",
"R  c #0A1109",
"E  c #091308",
"W  c #0A120A",
"Q  c #0A1709",
"!  c #091B08",
"~  c #0B1D0A",
"^  c #101210",
"/  c #171310",
"(  c #101510",
")  c #111411",
"_  c #121711",
"`  c #121412",
"'  c #121612",
"]  c #131613",
"[  c #131E12",
"{  c #131F12",
"}  c #161E15",
"|  c #181A17",
" . c #191B18",
".. c #191A19",
"X. c #1C1B1B",
"o. c #191C19",
"O. c #1A1E1A",
"+. c #1D1E1D",
"@. c #341B07",
"#. c #311C0A",
"$. c #371D08",
"%. c #371E09",
"&. c #381E09",
"*. c #092D07",
"=. c #092008",
"-. c #0B220A",
";. c #093007",
":. c #0A3D07",
">. c #142514",
",. c #152514",
"<. c #132B12",
"1. c #192119",
"2. c #1F261E",
"3. c #1F301E",
"4. c #20211F",
"5. c #212221",
"6. c #222222",
"7. c #272727",
"8. c #212D20",
"9. c #252D25",
"0. c #2C2C2C",
"q. c #243323",
"w. c #223A21",
"e. c #3C3734",
"r. c #393837",
"t. c #383E36",
"y. c #0C5309",
"u. c #164613",
"i. c #0F640B",
"p. c #11640D",
"a. c #11710C",
"s. c #13730E",
"d. c #1C700D",
"f. c #1A760D",
"g. c #137A0D",
"h. c #13780E",
"j. c #177F0D",
"k. c #157E10",
"l. c #264524",
"z. c #294928",
"x. c #2A4928",
"c. c #365A35",
"v. c #3E5E3C",
"b. c #405F3B",
"n. c #4C4843",
"m. c #514C47",
"M. c #4B544A",
"N. c #525551",
"B. c gray35",
"V. c #5F5D5B",
"C. c #5C5F5C",
"Z. c #496D47",
"A. c #516550",
"S. c #567F54",
"D. c #5D795B",
"F. c #666361",
"G. c #767776",
"H. c #16870F",
"J. c #14890E",
"K. c #15890F",
"L. c #188512",
"P. c #168A10",
"I. c #198912",
"U. c #63AF5F",
"Y. c #688067",
"T. c #6A8369",
"R. c #669863",
"E. c #6E916C",
"W. c #728271",
"Q. c #7F817F",
"!. c #71BF6D",
"~. c #79BD6C",
"^. c #7CC370",
"/. c #76D171",
"(. c #7FD778",
"). c #7ED67B",
"_. c #80E37B",
"`. c #80E37C",
"'. c #81E37C",
"]. c #81E37D",
"[. c #82E37D",
"{. c #82E47E",
"}. c #858E85",
"|. c #878F87",
" X c #908D8B",
".X c #929292",
"XX c #82A380",
"oX c #8AA489",
"OX c #97A597",
"+X c #9BA39B",
"@X c #A8B0A8",
"#X c #B3B2B1",
"$X c #89E584",
"%X c #8AE585",
"&X c #8BE586",
"*X c #9CE898",
"=X c #A1E39D",
"-X c #B0CAAF",
";X c #BDC1BD",
":X c #CBCBCA",
">X c #D6DAD6",
",X c gray85",
"<X c #DDDBD9",
"1X c #CDE3CB",
"2X c #CDE6CC",
"3X c #DFE8DE",
"4X c #DEEDDD",
"5X c #DDF7DB",
"6X c #E0F0DF",
"7X c gray92",
"8X c #E7F3E6",
"9X c #ECF5EB",
"0X c #EFF3EE",
"qX c #EDF6EC",
"wX c #F0FCEF",
"eX c #F2F2F1",
"rX c #F4F6F3",
"tX c #F3F9F3",
"yX c #F4F9F4",
"uX c #F6FAF6",
"iX c #F7FBF6",
"pX c #FAF9F8",
"aX c #FAFBFA",
"sX c #FBFBFB",
"dX c #FCFBFB",
"fX c #F9FCF8",
"gX c #F9FCF9",
"hX c #FAFDFA",
"jX c #FBFDFB",
"kX c #FBFEFB",
"lX c #FDFDFD",
"zX c #FCFEFC",
"xX c #FDFEFC",
"cX c #FDFFFD",
"vX c #FEFFFD",
"bX c #FEFFFE",
/* pixels */
"                      tX; S L L J P XXjX                        ",
"                    hXq.;.J.J.J.J.s.h z OXiXhX                  ",
"                    8Xi J.J.J.P.J.J.P.p.U ; ,.-XhX              ",
"                    }.I J.J.P.J.J.J.J.J.J.s.H . '               ",
"                    ' h.J.J.J.J.J.; *.-.-.:.J.L.. qX            ",
"                    E J.J.J.J.J.y.S D.|.W.w.s p.; 2X            ",
"                  iXH J.J.J.P.J.H E.fX    iXD.. ' 9X            ",
"                  eXQ f.d.j.H.I.s 4X  7X    lX. ;X              ",
"                  #X. 4 4 4 4 4 . n.X.$     ,X6.                ",
"                  <X. $.$.$.&.$.$.. e.V                         ",
"                  r.q $.$.$.$.$.$.$./ 7.                        ",
"                  Z k $.$.$.$.$.$.$.4 eX                        ",
"                pX6 C $.$.$.$.$.$.#.6 lX                        ",
"                  . & w $.$.$.$.$.e  X                          ",
"                  0.F.4 &.$.$.@.q m.lX                          ",
"                    lXV.< & & . z t.3XlX                        ",
"                      gXK Z././._.c.N N.                        ",
"                      2.Y.(.(.{._._.%X/ rX                      ",
"                    @X-.(.(.{.(.(.(.].Z.M.lX                    ",
"                    *./.(.(.{.(.{.{.(.].,.tX                    ",
"                  Q.] %X{.(.{.{.(.(.(.{.:.5XlX                  ",
"                  6.R.(.(.{.{.(.(.$X{.(.<.oX                    ",
"                  1.&X{.{.(.{.(.(.(.{.{.z.3.jX                  ",
"                  1.&X(.(.{.(.{.(.{.{.(.U.( jX                  ",
"                lX4.{.{.(.(.{.(._.].].].(.z lX                  ",
"                  9.{.(.(.{.(.{.].].].].).V lX                  ",
"                  +.v.{.{.(.{.(._._./.x.Y A.                    ",
"                  :X; 3.u.S U Q E . $ z 2XlX.XdX                ",
"                    >Xs u.; s =X*X} <.s 5XB.. 7X                ",
"                    ..6 t . ; s T.. ; ; ~ 1.l                   ",
"                    M l.J.J.J.h.j . k.J.J.! O.                  ",
"                    G.M E ; h h A.O.G D i Y +X                  "
};
