/* XPM */
static char *c5aaa3d9d1f242fb8c832e88d59d4319FiBeArbbBJ7dl89A[] = {
/* columns rows colors chars-per-pixel */
"32 32 256 2 ",
"   c #5C3612",
".  c #295A2B",
"X  c #2C1A09",
"o  c #1A6332",
"O  c #251608",
"+  c #351D0B",
"@  c #37210B",
"#  c #4B451D",
"$  c #0D1A11",
"%  c #16562C",
"&  c #2A1908",
"*  c #15532B",
"=  c #134A27",
"-  c #434A20",
";  c #196432",
":  c #1E6130",
">  c #134625",
",  c #255D2D",
"<  c #0E2516",
"1  c #166131",
"2  c #335427",
"3  c #165B2F",
"4  c #0F2918",
"5  c #11391F",
"6  c #211307",
"7  c #593412",
"8  c #10341D",
"9  c #2D2A11",
"0  c #231407",
"q  c #573311",
"w  c #1C1006",
"e  c #176533",
"r  c #311D0A",
"t  c #0B0602",
"y  c #311A09",
"u  c #1F1206",
"i  c #291808",
"p  c #140C04",
"a  c #1B1005",
"s  c #0D0803",
"d  c #221709",
"f  c #120B04",
"g  c #1D1206",
"h  c #180E05",
"j  c #100903",
"k  c #241207",
"l  c #040201",
"z  c #060401",
"x  c #5F3813",
"c  c black",
"v  c #C1272C",
"b  c #FF1D24",
"n  c #15582D",
"m  c #241507",
"M  c red",
"N  c #030201",
"B  c #176332",
"V  c #EC2022",
"C  c #113B20",
"Z  c #C0272C",
"A  c #020100",
"S  c #251607",
"D  c #144F29",
"F  c #225E2E",
"G  c #1A0F05",
"H  c #102F1B",
"J  c #165F30",
"K  c #123D21",
"L  c #211407",
"P  c #160D04",
"I  c #FE1D24",
"U  c #321E0A",
"Y  c #15562C",
"T  c #F91E23",
"R  c #281508",
"E  c #144E28",
"W  c #27431F",
"Q  c #4C441B",
"!  c #291E0B",
"~  c #652913",
"^  c #5E3914",
"/  c #2F1C09",
"(  c #FE0000",
")  c #1A0F06",
"_  c #254823",
"`  c #D5221F",
"'  c #AB2B20",
"]  c #EE2022",
"[  c #2E2F14",
"{  c #FC1D24",
"}  c #5B2A13",
"|  c #7C2114",
" . c #241307",
".. c #8B1A08",
"X. c #383516",
"o. c #283F1D",
"O. c #5B3113",
"+. c #20602F",
"@. c #2B5327",
"#. c #472A0E",
"$. c #AF2A27",
"%. c #B02A22",
"&. c #20542A",
"*. c #5A3512",
"=. c #3D4C22",
"-. c #922417",
";. c #463715",
":. c #303A19",
">. c #B32A1F",
",. c #3D270D",
"<. c #215C2D",
"1. c #3C270F",
"2. c #533111",
"3. c #294520",
"4. c #123F22",
"5. c #40260D",
"6. c #42270E",
"7. c #C6271F",
"8. c #35190A",
"9. c #14502A",
"0. c #4E3D18",
"q. c #2B5629",
"w. c #170E05",
"e. c #6B1D11",
"r. c #4D3A17",
"t. c #262B16",
"y. c #B62929",
"u. c #AC2B22",
"i. c #2F1F0B",
"p. c #1D2916",
"a. c #16572D",
"s. c #622512",
"d. c #314C23",
"f. c #3D190B",
"g. c #B1281B",
"h. c #2F3D1B",
"j. c #552711",
"k. c #5E2010",
"l. c #8B2F1E",
"z. c #FA0201",
"x. c #412D13",
"c. c #46270E",
"v. c #BE272B",
"b. c #682511",
"n. c #DA2320",
"m. c #6F1708",
"M. c #3B220B",
"N. c #3B200C",
"B. c #2F3618",
"V. c #413D1A",
"C. c #45210D",
"Z. c #5E3913",
"A. c #421C09",
"S. c #75241A",
"D. c #3D3D19",
"F. c #2D3C1C",
"G. c #2F1507",
"H. c #F41F23",
"J. c #B02A28",
"K. c #AF271B",
"L. c #31230D",
"P. c #172113",
"I. c #124123",
"U. c #124324",
"Y. c #EA0702",
"T. c #83301D",
"R. c #9B2923",
"E. c #992D22",
"W. c #9D2A23",
"Q. c #235D2D",
"!. c #AD2B25",
"~. c #AC2B27",
"^. c #CB1106",
"/. c #AE2B25",
"(. c #A82B26",
"). c #7B331A",
"_. c #17381E",
"`. c #A62A25",
"'. c #275529",
"]. c #3A4920",
"[. c #48270F",
"{. c #3E4A20",
"}. c #F21F23",
"|. c #4B2F11",
" X c #38401C",
".X c #413214",
"XX c #162C18",
"oX c #4B1708",
"OX c #323F1D",
"+X c #BB282B",
"@X c #B7291C",
"#X c #3C240C",
"$X c #8A2015",
"%X c #3E240C",
"&X c #A02B24",
"*X c #712313",
"=X c #4A2B0E",
"-X c #5B3713",
";X c #48471D",
":X c #37230C",
">X c #15592E",
",X c #422A0E",
"<X c #305528",
"1X c #41240D",
"2X c #176433",
"3X c #43270D",
"4X c #4F2B10",
"5X c #C4251D",
"6X c #2C250E",
"7X c #113C21",
"8X c #9F1206",
"9X c #123E21",
"0X c #7D2E1B",
"qX c #932E1E",
"wX c #301C09",
"eX c #3D230C",
"rX c #222715",
"tX c #321C0A",
"yX c #871C09",
"uX c #3A1F0C",
"iX c #AA2B1B",
"pX c #AD2B1B",
"aX c #7E321B",
"sX c #2E5528",
"dX c #271708",
"fX c #2D5126",
"gX c #5E3713",
"hX c #671D11",
"jX c #165D30",
"kX c #F61F23",
"lX c #4E3815",
"zX c #2B4721",
"xX c #44280E",
"cX c #283C1E",
"vX c #251808",
"bX c #B42929",
"nX c #2D1B09",
"mX c #AC2B20",
"MX c #275B2C",
"NX c #2F1C0A",
"BX c #942517",
"VX c #192916",
"CX c #173F21",
"ZX c #B2261B",
"AX c #F81E23",
"SX c #521708",
"DX c #2D1408",
"FX c #802014",
"GX c #262E17",
"HX c #0F2A18",
"JX c #B8292A",
"KX c #B9282A",
"LX c #602511",
"PX c #0E2316",
"IX c #304B22",
"UX c #CF251F",
/* pixels */
"e e e e e e e e e e e e e > n e e e e e e e e e e e e e e e e e ",
"e e e e e e e e e e e e e 4 Y e e e e e e e e e e e e e e e e e ",
"e e e e e e e e e D D e 9.HXB e e e e e e e e e e e e * 5 e e e ",
"e e e e e e e e e D PX= H > e e e e e e e e e e e e e U.5 e e e ",
"e e e e e e e e e e * $ < J e e e J B e e n n e e e e >Xa.e e e ",
"e e e e e e e e e e Q.x.-Xx ;X, e < $ Y e C 4.e e e e e e e e e ",
"e e e e e e e e e 2 ^ x x x x x # . $ C e 8 = e e e e e e e e e ",
"e e e e e e e ; - x x x x x x x x x 0.t.e 4 n e e e e e e e e e ",
"e e e e e e o Q x x x x x x x x x x x x r.rX2Xe e e e e e e e e ",
"e e e e e jXD.  x x x x x x x x x x x x x x # F e e e e e e e e ",
"e e e e e _ P z X 2.x x x x x x x x x x x x x Z.- : e e e e e e ",
"e e e E B ;.U 0 i A u 3Xq / 7 x x x x x x x x x *.|.]., e e e e ",
"e e e 4 9XxX.XeXNX+ & j 0 c u x x x x x x x x U N c c p <.e e e ",
"e e e 3 XXlXGXnX6.%XnXg.c. .& j @ q x x x gX6 c c c c c W e e e ",
"e e e e a.CXVXG nX#.f.ZX| T N.LXi ) g 5.gX& c c c c c c o.e e e ",
"e e e e e I.p.j 6 S hXiXH.BX-.I 8.s.+ dXwX& m P l c c c 3.e e e ",
"e e e e e K cXh z & FXb V @Xb 5X*XT DXb.C.N c N f 6 O O '.e e e ",
"e e e e o _.OXf t X ~ ' >.kXb n.b K.$XI b UXr A.oXy w.L.e e e e ",
"e e e e {.F.V.P j.E.v.v v !.mX%.7.}.b b b ] w 8XM ..! F e e e e ",
"e e e e :X=.aXJXZ J.bXv KXv v v Z u.V b b AXw Y.M m.h.e e e e e ",
"e e e e ,X*.).~.R.} v `.T.v $.Z v v /.V b `  .( M SXsXe e e e e ",
"e e e e 1.L a j #XO.l.R 0Xy.4X+X(.v v >.{ e.G.M z.y . e e e e e ",
"e e e e B.c j m m a f @ 1XuXwX&X[.v v qXpXk s ^.yXi  Xe e e e e ",
"e e e e @.c c c c z g O L X m M.=XW.S.tXk.S h z p 6 ,.e e e e e ",
"e e e e &.s c c c c c c c l h m m G S dXA p 6 g l c f +.e e e e ",
"e e e 3 < i.t l c c c c c c c c c z u @ t c c c c l vX2 e e e e ",
"e e e C 5 % P.MXq.IX:.9 d f N c c c c m c c A a 9 zX; e e e e e ",
"e e 1 4 n 7X8 e e e e e e : <Xd.X.6Xd @ g [ fXo e e e e e e e e ",
"e e 1 K e H > e e e e e e e e e e e e e e e e e e e e e e e e e ",
"e e e e e e e e e e e e e e e e e e e e e e e e e e e e e e e e ",
"e e e e e e e e e e e e e e e e e e e e e e e e e e e e e e e e ",
"e e e e e e e e e e e e e e e e e e e e e e e e e e e e e e e e "
};
