/* XPM */
static char *_37cef561804440c868098675759881axDl3eaib1eZXBAXT[] = {
/* columns rows colors chars-per-pixel */
"32 32 228 2 ",
"   c #176533",
".  c black",
"X  c #E40C0C",
"o  c #020204",
"O  c #424243",
"+  c #E40D0D",
"@  c #040101",
"#  c #414144",
"$  c #2B2FDC",
"%  c #2D31DC",
"&  c #08080F",
"*  c gray2",
"=  c #120202",
"-  c #040409",
";  c #0A0303",
":  c #050513",
">  c #090808",
",  c #5D5D5D",
"<  c #2C30DC",
"1  c #0C0C0D",
"2  c #E40F0F",
"3  c #2E32DD",
"4  c gray34",
"5  c #272BC3",
"6  c #414141",
"7  c #290303",
"8  c #444343",
"9  c #444141",
"0  c #3F3F3F",
"q  c #0D0D17",
"w  c #323232",
"e  c #1C1D22",
"r  c #222222",
"t  c #464141",
"y  c gray25",
"u  c #1B1B1B",
"i  c gray21",
"p  c gray36",
"a  c #3D0303",
"s  c #1B1C6C",
"d  c #1C0405",
"f  c #2F2525",
"g  c #141313",
"h  c #4E4E4E",
"j  c #0A0926",
"k  c #131324",
"l  c #414146",
"z  c #4D4D5F",
"x  c #121446",
"c  c #1F2173",
"v  c #191954",
"b  c gray26",
"n  c #4C4C4C",
"m  c #520707",
"M  c #0E0F30",
"N  c #5C5C5D",
"B  c #230202",
"V  c #E10D0F",
"C  c #1C1D35",
"Z  c #121213",
"A  c #E20F0F",
"S  c #232133",
"D  c #4E4E4F",
"F  c gray33",
"G  c #414040",
"H  c #3F3F42",
"J  c #353536",
"K  c #251111",
"L  c #45444E",
"P  c #272AA7",
"I  c #262AB5",
"U  c #430A0A",
"Y  c #281454",
"T  c #7A0707",
"R  c #3E3E41",
"E  c #0A0A17",
"W  c #413D3D",
"Q  c #0F101F",
"!  c #414249",
"~  c #15162C",
"^  c #940808",
"/  c #32323E",
"(  c #403D3D",
")  c #515261",
"_  c #0F1043",
"`  c #615959",
"'  c #373863",
"]  c #3C3C47",
"[  c #101149",
"{  c #171841",
"}  c #D11616",
"|  c #760B0B",
" . c #362F2F",
".. c gray35",
"X. c #2629AB",
"o. c #252894",
"O. c #5C5B5B",
"+. c #2E2F41",
"@. c #5A5A5A",
"#. c #49485A",
"$. c #54535C",
"%. c #4B4C65",
"&. c #535353",
"*. c #2B2FD7",
"=. c #555669",
"-. c #9C1111",
";. c #2C0A0A",
":. c #06061E",
">. c #20228B",
",. c #18193E",
"<. c #DF0E0E",
"1. c #585987",
"2. c #72514F",
"3. c #322ED5",
"4. c #59597D",
"5. c #3236DB",
"6. c #43434C",
"7. c #2F2F2F",
"8. c #5B5A76",
"9. c #454450",
"0. c #494854",
"q. c #535268",
"w. c #4B4242",
"e. c #5C5C5F",
"r. c #585858",
"t. c #585859",
"y. c #585867",
"u. c #322A2A",
"i. c #491414",
"p. c #44454C",
"a. c #501414",
"s. c #6666A4",
"d. c #484659",
"f. c #413232",
"g. c #3D3CDA",
"h. c #580A1D",
"j. c #292B99",
"k. c #181A61",
"l. c #503131",
"z. c #634E4E",
"x. c #454452",
"c. c #AB0909",
"v. c #220808",
"b. c #343434",
"n. c #6B5150",
"m. c #5E4C4A",
"M. c #E51313",
"N. c #070820",
"B. c #CF0B0B",
"V. c #505050",
"C. c #111251",
"Z. c #282959",
"A. c #222473",
"S. c #140808",
"D. c #605F87",
"F. c #2B2C48",
"G. c #515151",
"H. c #4A4956",
"J. c #140F0F",
"K. c gray22",
"L. c #424044",
"P. c #2F2F3B",
"I. c #5D5D5E",
"U. c gray28",
"Y. c #1E1F46",
"T. c #2225A8",
"R. c #443F3E",
"E. c #9E0F10",
"W. c #1C0515",
"Q. c #190A0A",
"!. c #5B4847",
"~. c #18195E",
"^. c #1F219B",
"/. c #514544",
"(. c #691D1D",
"). c #414263",
"_. c #3E3F45",
"`. c #5F5D5D",
"'. c #24242D",
"]. c #4C4747",
"[. c #434343",
"{. c #440404",
"}. c #434141",
"|. c #650808",
" X c #C30D0D",
".X c #444448",
"XX c #15176D",
"oX c #3B3EC6",
"OX c #434248",
"+X c #5C5C6A",
"@X c #3C3D69",
"#X c #16173C",
"$X c #404043",
"%X c #3A3A40",
"&X c #5C5C61",
"*X c #4A495C",
"=X c #895C5A",
"-X c #48475C",
";X c #434040",
":X c #480505",
">X c #D00C0C",
",X c #5B1414",
"<X c #453F3E",
"1X c #413E3E",
"2X c #131334",
"3X c #2B24A6",
"4X c #3135D6",
"5X c #4D4A4A",
"6X c #4B4A62",
"7X c #514A49",
"8X c #240927",
"9X c #5A5A79",
"0X c #555573",
"qX c #444444",
"wX c #504544",
"eX c #494949",
"rX c #5B5B5C",
"tX c #575974",
"yX c #0E0A0A",
"uX c #57566E",
"iX c #4C4C52",
"pX c gray9",
"aX c #5B5A66",
"sX c #4B4B5C",
"dX c #645857",
"fX c #2528BC",
"gX c #300404",
"hX c #E00C0C",
/* pixels */
"                    ( w.; @ d = Q.!.<X9                         ",
"                  dX* = | A X X  Xa.; l.n.t                     ",
"              ;Xf.@ T X X X X 2 + 2 hXU d 2.8                   ",
"            1XJ.v.>XX X X X X + X X X 2 |.K 9                   ",
"          }.> i.M.+ + + X X X X X X X + + ;.z.8                 ",
"        R.; ,X2 + X 2 + X V V X X X X X X B.; =Xt               ",
"      G yXU + X X X <.E.h.8XW.d 7 m c.X + X :X(.m.8             ",
"    9 u.S.A + ^ a = . . Y ^.. . . ; . @ 7 T } K /.              ",
"    7X@ -.{.@ ; B = . . 3.$ o . . @ 7 . . . . @ 9               ",
"    ].. @ 7 a B a = ^ . 3X$ : . . = . . . . . g                 ",
"    `.. > @ @ gX; m = . Y < j . . @ . > f ` L.! R rXN h         ",
"      y O.W f f  .W 5Xu S g.v & wXt G 8 OX0X@XQ . . . K.        ",
"        O             .Xq 3 I o D p i Z o - N.:.. . . ,         ",
"      p.q / $.H y 6 4 J - % $ - . . . . . o o . . Z * . i       ",
"    I.. o.A.k & 1 g r > . % $ M 1 F , n O d.e e . 1 , ..4       ",
"    o . : . : I k * > i o 3 $ XXF.O       N u w b.7.            ",
"    p x.C . & q e U.  # C 3 $ 5 E #       , b u y F             ",
"      eX. . . . 0     H.,.< $ $ : 9.          p   6             ",
"      J . h . 1     O *X{ < < $ ~.+.O                           ",
"      4 h   1 qX  # q.~ P < % % 4X& H                           ",
"            0 # z s.~ x C.fX3 3 % v '.                          ",
"          O 6.D.Y.o s s . 5 [ c % 5 . aX                        ",
"        # uX' o j >.k o : s o o j.% _ * R                       ",
"      $X8.& M k.E & =.%.2Xo 1.+X* oX*.- P.O                     ",
"    l tXo - o & 4.L # r . ) #   e.q 5.X.o _.                    ",
"  O #.. & . sXz l O 6 . g O       ] #X% x ).O                   ",
"    iX. . &X  O     @.. r.        # S c 5 o 9XO                 ",
"    w . t.          w o b           ! Q P j Z.L                 ",
"    n &.            * r               y.- T.: -XO               ",
"                  V.. 4               O 6Xo - > D               ",
"                  , . [.                # 0.%X* o 0             ",
"                  0 pX                          G.6             "
};
