/* XPM */
static char *cbcbe02a59c64916d4c0076a89e41e0bgryj6F6vbEEEKhkO[] = {
/* columns rows colors chars-per-pixel */
"32 32 255 2 ",
"   c None",
".  c black",
"X  c #040101",
"o  c #020204",
"O  c gray2",
"+  c #0A0303",
"@  c #040409",
"#  c #090808",
"$  c #0E0A0A",
"%  c #08080F",
"&  c #0C0C0D",
"*  c #120202",
"=  c #1C0405",
"-  c #140808",
";  c #140F0F",
":  c #190A0A",
">  c #050513",
",  c #0A0A17",
"<  c #0D0D17",
"1  c #06061E",
"2  c #1C0515",
"3  c #0F101F",
"4  c #121213",
"5  c #141313",
"6  c gray9",
"7  c #1B1B1B",
"8  c #230202",
"9  c #290303",
"0  c #220808",
"q  c #2C0A0A",
"w  c #300404",
"e  c #3D0303",
"r  c #251111",
"t  c #070820",
"y  c #0A0926",
"u  c #131324",
"i  c #1C1D22",
"p  c #15162C",
"a  c #0E0F30",
"s  c #131334",
"d  c #1C1D35",
"f  c #16173C",
"g  c #18193E",
"h  c #240927",
"j  c #222222",
"k  c #2F2525",
"l  c #24242D",
"z  c #2F2F2F",
"x  c #322A2A",
"c  c #362F2F",
"v  c #232133",
"b  c #2F2F3B",
"n  c #323232",
"m  c #343434",
"M  c #353536",
"N  c gray21",
"B  c #32323E",
"V  c gray22",
"C  c #440404",
"Z  c #480505",
"A  c #430A0A",
"S  c #520707",
"D  c #580A1D",
"F  c #491414",
"G  c #501414",
"H  c #5B1414",
"J  c #650808",
"K  c #7B0707",
"L  c #760B0B",
"P  c #691D1D",
"I  c #413232",
"U  c #423E3E",
"Y  c #503131",
"T  c #0F1043",
"R  c #121446",
"E  c #171841",
"W  c #1E1F46",
"Q  c #101149",
"!  c #111251",
"~  c #191954",
"^  c #18195E",
"/  c #281454",
"(  c #2E2F41",
")  c #2B2C48",
"_  c #3A3A40",
"`  c #3D3D48",
"'  c #282959",
"]  c #181A61",
"[  c #15176D",
"{  c #1B1C6C",
"}  c #1F2173",
"|  c #373864",
" . c #3D3E6B",
".. c #222473",
"X. c #464646",
"o. c #4D4444",
"O. c #46474E",
"+. c #4F4949",
"@. c #504D4D",
"#. c #5F4B4B",
"$. c #505056",
"%. c #5D5D5D",
"&. c #6C5555",
"*. c #424365",
"=. c #4F4F60",
"-. c #4E4E66",
";. c #4F506B",
":. c #585969",
">. c #626262",
",. c #676767",
"<. c #6D6D6D",
"1. c #736A6A",
"2. c #616277",
"3. c #6F6F73",
"4. c gray44",
"5. c gray45",
"6. c #747475",
"7. c gray47",
"8. c #7B7B7C",
"9. c #7C7C7C",
"0. c #9A0808",
"q. c #AC0909",
"w. c #A20F11",
"e. c #A01212",
"r. c #C30D0D",
"t. c #CF0B0B",
"y. c #D00C0C",
"u. c #DF0E0E",
"i. c #D11616",
"p. c #E00C0C",
"a. c #E10D0F",
"s. c #E20F0F",
"d. c #E40C0C",
"f. c #E40D0D",
"g. c #E40F0F",
"h. c #E51313",
"j. c #827F7F",
"k. c #1F219B",
"l. c #20228B",
"z. c #252894",
"x. c #292B99",
"c. c #2B24A6",
"v. c #272AA7",
"b. c #2225A8",
"n. c #2629AB",
"m. c #262AB5",
"M. c #2528BC",
"N. c #676988",
"B. c #6F709B",
"V. c #7678B2",
"C. c #272BC3",
"Z. c #3B3EC6",
"A. c #2B2FD7",
"S. c #2B2FDC",
"D. c #322ED5",
"F. c #2C30DC",
"G. c #2D31DC",
"H. c #2E32DD",
"J. c #3135D6",
"K. c #3236DB",
"L. c #3D3CDA",
"P. c gray51",
"I. c #84858B",
"U. c #8A8A8B",
"Y. c #8C8B8B",
"T. c gray56",
"R. c #998787",
"E. c #848497",
"W. c #878797",
"Q. c #929292",
"!. c #929294",
"~. c #979797",
"^. c #9D9D9D",
"/. c #8D8DA3",
"(. c #8585AC",
"). c #9A9AA6",
"_. c #8E8FBC",
"`. c gray64",
"'. c #A5A5A5",
"]. c #A9A9AA",
"[. c #AAAAAA",
"{. c gray67",
"}. c #BAADAD",
"|. c gray69",
" X c #B6B6B7",
".X c gray",
"XX c #EEA4A4",
"oX c #EBADAD",
"OX c #8486D2",
"+X c #BFBFC6",
"@X c #B3B3C8",
"#X c #ACADD2",
"$X c #AFB0D8",
"%X c #B1B2D5",
"&X c #BDBDD5",
"*X c #B3B4D9",
"=X c #BDBDDC",
"-X c #A4A5E2",
";X c #B3B5EA",
":X c #C8C8C8",
">X c gray81",
",X c #D0CFD4",
"<X c #D6D0D0",
"1X c #D0D0D7",
"2X c #D5D5D5",
"3X c #D6D6DD",
"4X c gray85",
"5X c #F6C1C1",
"6X c #F9CDCD",
"7X c #E0D3D3",
"8X c #E6D4D4",
"9X c #F9DBDD",
"0X c #FBDDDD",
"qX c #DEDFEF",
"wX c #C5C6F4",
"eX c #CBCCF6",
"rX c #D3D4F8",
"tX c #DADAF9",
"yX c #E7E0E0",
"uX c #E3E3E4",
"iX c #E4E4E4",
"pX c #E1E1E9",
"aX c #E7E7EF",
"sX c #E9E9E9",
"dX c #EEE8E8",
"fX c #F2EEEE",
"gX c #FDEFEF",
"hX c #EEEEF6",
"jX c #E4E5FB",
"kX c #E6E7FB",
"lX c #EAEBFB",
"zX c #EDEDFB",
"xX c #EEEFFC",
"cX c #F3F0F0",
"vX c #F3F3F3",
"bX c #F3F3F5",
"nX c gray97",
"mX c #FAF2F2",
"MX c #FDF0F0",
"NX c #FEF7F7",
"BX c #F3F3FD",
"VX c #F4F4FD",
"CX c #F6F6FD",
"ZX c #F7F7FE",
"AX c #F9F9F9",
"SX c #FBFBFB",
"DX c #FEF8F8",
"FX c #FEF9F9",
"GX c #FFFBFB",
"HX c #F8F8FE",
"JX c #FBFBFE",
"KX c #FDFDFD",
"LX c #FFFDFD",
"PX c #FCFCFE",
"IX c #FDFDFF",
/* pixels */
"                    dXo.+ X = * : #.8XNX                        ",
"                  R.O * L f.f.f.r.F + Y 5XgX                    ",
"              mXI X K d.f.d.d.f.g.g.f.A = oXIX                  ",
"            yX; 0 y.d.d.f.f.d.f.d.d.d.g.J r NX                  ",
"          <X# F h.g.d.g.d.d.d.d.d.d.d.d.g.q &.IX                ",
"        7X+ H g.d.d.g.d.d.a.f.g.d.d.d.d.d.t.O XXMX              ",
"      cX$ A g.d.g.d.u.w.D h 2 = 9 S q.g.d.d.Z P 6XIX            ",
"    DXx - f.g.0.e * . . / k.. . . + . X 9 K i.q 0X              ",
"    }.X e.C X + 8 * . . D.F.. . . X 9 . . . . X DX              ",
"    +.. X 9 e 8 e * 0.. c.G.> . . * . . . . . 5                 ",
"    j.. # X X w + S * . / H.y . . X . # k 1.,XlXaXU.6.{.        ",
"      cXY.U k k c U @.7 v L.~ > 9XgXfXIXzX_. .3 . . . V         ",
"        IX            +X< H.m.. [.<.N 4 o @ t 1 . . . 9.        ",
"      O.< B ).hXbX>X~.N @ G.S.@ . . . . . o o . . 4 O . N       ",
"    9.. z...u > & 5 j # . H.S.a & %.P.|.1X*Xi i . & P.,.>.      ",
"    o . > . > m.u O # V o H.S.[ ) IX      6.7 n m c             ",
"    5.=Xd . % < i .X  BXd H.S.C., HX      P.IX7 4X%.            ",
"       X. . . . uX    tXg S.S.S.> &X          5.  bX            ",
"      N . [.. &     IX#XE G.S.S.^ ( IX                          ",
"      ~.{.  & X.  BXeXp v.S.H.H.J.% 3X                          ",
"            sXHXrXOXp R ! M.H.H.H.~ l                           ",
"          IXjX-XW o { { . C.Q } G.C.. W.                        ",
"        BXwX| o y l.u o > { o o x.G.T O pX                      ",
"      ZX(.% a ] , % 2.;.s o V.E.O Z.A.@ b IX                    ",
"    xXN.o @ o % B.jXHXj . :.ZX  3.< K.n.. qX                    ",
"  IX%X. % . =.rXxXIXAX. 5 IX      ` f G.R *.ZX                  ",
"    $.. . I.  IX    T.. Q.        HXv ..C.o ;XIX                ",
"    n . !.          n O AX          lX3 n.y ' jX                ",
"    |.^.            O j               /.@ b.> $XIX              ",
"                  '.. >.              HX-.o @ # [.              ",
"                  7.. :X                ZX@X_ O O iX            ",
"                  sX6                           `.2X            "
};
