/* XPM */
static char *_eb8797e10d543f9b9ac379566a77b78gfYADaA2LJTCnJNm[] = {
/* columns rows colors chars-per-pixel */
"32 32 121 2 ",
"   c #176533",
".  c white",
"X  c #EFEFEF",
"o  c #4E4E4E",
"O  c gray37",
"+  c #FEFEFE",
"@  c #151515",
"#  c #D8D8D8",
"$  c #7B7B7B",
"%  c gray42",
"&  c #0E0E0E",
"*  c #5F5F5F",
"=  c #3E3E3E",
"-  c gray36",
";  c #145A2D",
":  c #535353",
">  c #C6C6C6",
",  c gray21",
"<  c gray93",
"1  c gray4",
"2  c #808080",
"3  c #14592D",
"4  c gray38",
"5  c #101411",
"6  c #4C4C4C",
"7  c #E7E7E7",
"8  c #18271D",
"9  c #1E6839",
"0  c #0E100F",
"q  c #070908",
"w  c #E6E6E6",
"e  c #155D2F",
"r  c #155B2E",
"t  c #3C4A41",
"y  c #202321",
"u  c gray8",
"i  c #35433A",
"p  c #0E0F0F",
"a  c #414B44",
"s  c #333D36",
"d  c #ACACAC",
"f  c #356B48",
"g  c #3D684C",
"h  c #4C4D4C",
"j  c gray55",
"k  c #165F30",
"l  c #8B8B8B",
"z  c gray47",
"x  c #486151",
"c  c #69746D",
"v  c #627268",
"b  c #565656",
"n  c #161817",
"m  c #4E745C",
"M  c #404743",
"N  c #536158",
"B  c gray62",
"V  c #050605",
"C  c gray39",
"Z  c #4A5A50",
"A  c #6F6F6F",
"S  c #B2B2B2",
"D  c #234E33",
"F  c #05150B",
"G  c #3A3A3A",
"H  c #617F6C",
"J  c #104724",
"K  c gray44",
"L  c #606060",
"P  c #4B4B4B",
"I  c #232C27",
"U  c #A0A0A0",
"Y  c #242926",
"T  c #FDFEFD",
"R  c #196634",
"E  c #196434",
"W  c #5D5D5D",
"Q  c gray99",
"!  c gray22",
"~  c #A2A2A2",
"^  c #686969",
"/  c #4F6456",
"(  c #47524B",
")  c gray52",
"_  c gray11",
"`  c #888E8A",
"'  c #AEAEAE",
"]  c #C3C3C3",
"[  c #B6B6B6",
"{  c gray83",
"}  c #CACACA",
"|  c #090C0A",
" . c #727473",
".. c #8B968F",
"X. c #080909",
"o. c #186534",
"O. c gray7",
"+. c #1F6438",
"@. c #3C3C3C",
"#. c #EEEEEE",
"$. c #F8F8F8",
"%. c #777777",
"&. c #0D100E",
"*. c #E4E4E4",
"=. c #285438",
"-. c #186634",
";. c gray86",
":. c #626D66",
">. c #737574",
",. c #080A09",
"<. c gray",
"1. c #373B39",
"2. c #5F605F",
"3. c #67756C",
"4. c gray67",
"5. c #393939",
"6. c #494B49",
"7. c #656565",
"8. c #F9F9F9",
"9. c #303A34",
"0. c #050606",
/* pixels */
"                                                                ",
"                                                                ",
"                                                                ",
"                                                                ",
"                                                                ",
"                                                                ",
"                                                                ",
"                                  r ; 3 e k                     ",
"                          ; J X.p n 0 | ,.q 0.V                 ",
"                        +.F 1.2 j K U < #.X 7 = M               ",
"                      5 9.o ;.. . . . . . . . # ,               ",
"                    : * X Q + . . . . . . . . . <.O.            ",
"              o.  6.@ , + . . . . . . . . . . . . ' a           ",
"              R ^ 4.B P . . . . . . . . . . . . . . t           ",
"                L . . 4 w . . . . . . . . . . . . + i           ",
"              s [ . . * # . . . . . . . . . . . 8.1 y           ",
"            ( %.. . < 6 $.. . . . . . . . . X > % Y             ",
"            h b . d @ - . . . . . . T . *.) - A m               ",
"            @.] z @ C l S } { > $ 7.x ~ :.c o O                 ",
"            I % O H     =.` W G 2.  D g 9 f o !                 ",
"                            ..$  .-.        O _                 ",
"                            v : >.        = & u                 ",
"                          3.& 1 2         5.8 /                 ",
"                          N &.Z             E                   ",
"                                                                ",
"                                                                ",
"                                                                ",
"                                                                ",
"                                                                ",
"                                                                ",
"                                                                ",
"                                                                "
};
