/* XPM */
static char *_9d3bdac77934248bc69dba5b90a1ca4rEkxZmMzBi5KrUgn[] = {
/* columns rows colors chars-per-pixel */
"32 32 121 2 ",
"   c None",
".  c black",
"X  c #010101",
"o  c #020202",
"O  c gray1",
"+  c #040404",
"@  c gray2",
"#  c #060606",
"$  c gray3",
"%  c #090909",
"&  c gray4",
"*  c #0B0B0B",
"=  c gray5",
"-  c #0E0E0E",
";  c gray6",
":  c #101010",
">  c gray8",
",  c gray9",
"<  c #181818",
"1  c gray10",
"2  c #1B1B1B",
"3  c gray11",
"4  c #1D1D1D",
"5  c #1E1E1E",
"6  c gray12",
"7  c #202020",
"8  c gray13",
"9  c #222222",
"0  c #232323",
"q  c #252525",
"w  c #282828",
"e  c #2A2A2A",
"r  c #2C2C2C",
"t  c #2D2D2D",
"y  c gray18",
"u  c #2F2F2F",
"i  c gray19",
"p  c gray20",
"a  c #343434",
"s  c #353535",
"d  c gray21",
"f  c #373737",
"g  c gray22",
"h  c #393939",
"j  c gray23",
"k  c #3C3C3C",
"l  c #3F3F3F",
"z  c gray25",
"x  c #414141",
"c  c gray26",
"v  c #434343",
"b  c gray27",
"n  c #494949",
"m  c gray29",
"M  c #4C4C4C",
"N  c #515151",
"B  c gray33",
"V  c #555555",
"C  c gray34",
"Z  c #585858",
"A  c gray37",
"S  c #5F5F5F",
"D  c #646464",
"F  c #676767",
"G  c #686868",
"H  c DimGray",
"J  c #6C6C6C",
"K  c #6F6F6F",
"L  c gray44",
"P  c #747474",
"I  c #777777",
"U  c gray47",
"Y  c #7E7E7E",
"T  c gray50",
"R  c #808080",
"E  c #838383",
"W  c #868686",
"Q  c #8E8E8E",
"!  c gray56",
"~  c #959595",
"^  c #979797",
"/  c #9A9A9A",
"(  c #9B9B9B",
")  c #9D9D9D",
"_  c #A2A2A2",
"`  c gray64",
"'  c gray65",
"]  c gray66",
"[  c gray69",
"{  c #B9B9B9",
"}  c gray",
"|  c #C0C0C0",
" . c #C1C1C1",
".. c #C3C3C3",
"X. c #C5C5C5",
"o. c gray78",
"O. c #C8C8C8",
"+. c #CACACA",
"@. c gray80",
"#. c #CECECE",
"$. c gray81",
"%. c LightGray",
"&. c #D5D5D5",
"*. c #D7D7D7",
"=. c gray85",
"-. c gainsboro",
";. c gray87",
":. c gray88",
">. c #E2E2E2",
",. c #E6E6E6",
"<. c gray91",
"1. c #E9E9E9",
"2. c #EFEFEF",
"3. c #F1F1F1",
"4. c #F3F3F3",
"5. c gray96",
"6. c gray97",
"7. c #F9F9F9",
"8. c #FBFBFB",
"9. c #FDFDFD",
"0. c white",
/* pixels */
"                                                                ",
"                                                                ",
"                                                                ",
"                                                                ",
"                            9.;.*.9.4.h 0 q u u h d d 6.        ",
"                        F e d C z e 4 ' 9.9.9.9.9.9.=.0 /       ",
"                    ] * R 9.9.9.9.9.9.9.9.9.9.9.9.9.9.4.0 6.    ",
"              9.G 4 p E ) 9.9.9.9.9.9.9.9.9.9.9.9.9.9.9.;.d     ",
"            #., K 9.9.9.9.9.9.9.9.9.9.9.9.9.9.9.9.9.9.9.9.E p   ",
"          } @ 1 h 7.9.9.9.9.9.9.9.9.9.9.9.9.9.9.9.9.9.9.9.9.m Z ",
"        Y * N 1 @ <.9.9.9.9.9.9.9.9.9.9.9.9.9.9.9.9.9.9.9.9.9.4 ",
"      =.* 7.h / * 9.9.9.9.9.9.9.9.9.9.9.9.9.9.9.9.9.9.9.9.9.9.1 ",
"      u R 9.9.o.. 7.9.9.9.9.9.9.9.9.9.9.9.9.9.9.9.9.9.9.9.9.9.0 ",
"    9., 9.9.9.7.e +.9.9.9.9.9.9.9.9.9.9.9.9.9.9.9.9.9.9.9.9.9., ",
"    m u 9.9.9.9.q { 9.9.9.9.9.9.9.9.9.9.9.9.9.9.9.9.9.9.9.9.Q b ",
"  S 0 9.9.9.9.9.* +.9.9.9.9.9.9.9.9.9.9.9.9.9.9.9.9.9.9.9.<.1 9.",
"U 4 9.9.9.9.9.=.@ 9.9.9.9.9.9.9.9.9.9.9.9.9.9.9.9.9.9.#.q e =.  ",
"@ :.9.9.9.9.9.e M 9.9.9.9.9.9.9.9.9.9.9.9.9.9.9.4.F e u o.      ",
". 9.9.9.9.9.z . <.9.9.9.9.9.9.9.9.9.9.9.9.9.} e . u 9.L         ",
"1 [ 9.7.P = M o.u W 9.9.9.9.9.o.k k 4   :.u z 6.p U 9.C         ",
"%.: d = * _ 9.9.9.K d h k z 0 @ L *.K h p <.    4 C 9.d         ",
"  9.' ' 9.            9.2., [ z )               G u 9.0         ",
"                        9.h ] z Q               *.q 9.1         ",
"                          C ] b Q             ;.4 * ;.e         ",
"                        #.: S z _           4.@ d * @ =         ",
"                       .* 1 p * }           +.@ * = z %.        ",
"                      d = @ 4 = <.            ~ :.              ",
"                      ' = : :.                                  ",
"                                                                ",
"                                                                ",
"                                                                ",
"                                                                "
};
